<svg width="10" height="10" viewBox="0 0 10 10" fill="none" xmlns="http://www.w3.org/2000/svg">
<path d="M5 0C5.45898 0 5.90169 0.0585938 6.32812 0.175781C6.75456 0.292969 7.15169 0.46224 7.51953 0.683594C7.88737 0.904948 8.22428 1.16536 8.53027 1.46484C8.83626 1.76432 9.09831 2.10124 9.31641 2.47559C9.5345 2.84993 9.70215 3.2487 9.81934 3.67188C9.93652 4.09505 9.99675 4.53776 10 5C10 5.45898 9.94141 5.90169 9.82422 6.32812C9.70703 6.75456 9.53776 7.15169 9.31641 7.51953C9.09505 7.88737 8.83464 8.22428 8.53516 8.53027C8.23568 8.83626 7.89876 9.09831 7.52441 9.31641C7.15006 9.5345 6.7513 9.70215 6.32812 9.81934C5.90495 9.93652 5.46224 9.99675 5 10C4.54102 10 4.09831 9.94141 3.67188 9.82422C3.24544 9.70703 2.84831 9.53776 2.48047 9.31641C2.11263 9.09505 1.77572 8.83464 1.46973 8.53516C1.16374 8.23568 0.901693 7.89876 0.683594 7.52441C0.465495 7.15006 0.297852 6.7513 0.180664 6.32812C0.0634766 5.90495 0.00325521 5.46224 0 5C0 4.54102 0.0585938 4.09831 0.175781 3.67188C0.292969 3.24544 0.46224 2.84831 0.683594 2.48047C0.904948 2.11263 1.16536 1.77572 1.46484 1.46973C1.76432 1.16374 2.10124 0.901693 2.47559 0.683594C2.84993 0.465495 3.2487 0.297852 3.67188 0.180664C4.09505 0.0634766 4.53776 0.00325521 5 0ZM7.94434 3.34473L7.28027 2.68066L4.0625 5.89844L2.71973 4.55566L2.05566 5.21973L4.0625 7.22656L7.94434 3.34473Z" fill="#18AC00"/>
</svg>
