<svg width="13" height="12" viewBox="0 0 13 12" fill="none" xmlns="http://www.w3.org/2000/svg">
<path fill-rule="evenodd" clip-rule="evenodd" d="M8.72922 7.54729H8.17939L7.98451 7.36204C8.66658 6.57988 9.07722 5.56444 9.07722 4.45981C9.07722 1.99669 7.05189 0.00012207 4.55329 0.00012207C2.05469 0.00012207 0.0293579 1.99669 0.0293579 4.45981C0.0293579 6.92294 2.05469 8.9195 4.55329 8.9195C5.67383 8.9195 6.70389 8.5147 7.49732 7.84232L7.68524 8.03443V8.57645L11.1652 12.0001L12.2022 10.9778L8.72922 7.54729ZM4.55237 7.54739C2.81936 7.54739 1.42042 6.16832 1.42042 4.45992C1.42042 2.75151 2.81936 1.37244 4.55237 1.37244C6.28539 1.37244 7.68433 2.75151 7.68433 4.45992C7.68433 6.16832 6.28539 7.54739 4.55237 7.54739Z" fill="#898989"/>
</svg>
